<svg xmlns="http://www.w3.org/2000/svg" viewBox="0 0 200 80" fill="none">
  <path
    d="
      M 100 20
      C  94 14,  83  2,  80  7
      C  77 12,  70 20,  62 26
      C  50 18,  34 12,  22 20
      C  10 28,   2 42,   4 52
      C   9 63,  28 68,  46 61
      C  56 56,  62 67,  74 64
      C  84 61,  93 72, 100 72
      C 107 72, 116 61, 126 64
      C 138 67, 144 56, 154 61
      C 172 68, 191 63, 196 52
      C 198 42, 190 28, 178 20
      C 166 12, 150 18, 138 26
      C 130 20, 123 12, 120  7
      C 117  2, 106 14, 100 20
      Z
    "
    fill="#3b82f6"
  />
</svg>
